<svg width="30px" height="30px" viewBox="0 0 30 30" version="1.1" xmlns="http://www.w3.org/2000/svg" xmlns:xlink="http://www.w3.org/1999/xlink">
    <g id="Symbols" stroke="none" stroke-width="1" fill="none" fill-rule="evenodd">
        <g id="NavAnchor/1/EmptyFull" transform="translate(-56.000000, -1.000000)">
            <g id="Group">
                <g>
                    <path d="M16,0 L126,0 L140.585786,14.5857864 C141.366835,15.366835 141.366835,16.633165 140.585786,17.4142136 L126,32 L126,32 L16,32 L1.41421356,17.4142136 C0.633164979,16.633165 0.633164979,15.366835 1.41421356,14.5857864 L16,0 L16,0 Z" id="Rectangle" stroke="#DDDBDA" fill="#FFFFFF"></path>
                    <circle id="Oval" stroke="#DDDBDA" fill="#DDDBDA" cx="71" cy="16" r="16"></circle>
                    <g id="Icon/Conga/RedC/100" transform="translate(56.000000, 1.000000)">
                        <g>
                            <path d="M29.9906523,14.9953261 C29.9906523,23.2769007 23.2770738,29.9906523 14.9953261,29.9906523 C6.71357845,29.9906523 0,23.2769007 0,14.9953261 C0,6.71357845 6.71357845,0 14.9953261,0 C23.2770738,0 29.9906523,6.71357845 29.9906523,14.9953261" id="Fill-3" fill="#D2232A"></path>
                            <path d="M16.0689286,9.08846708 C16.9881103,9.08846708 18.0112434,9.18614732 19.2000686,9.38776936 L19.3777309,9.41782481 L19.6385542,7.63703892 L19.4873523,7.59696498 C18.4976096,7.3371105 17.1550625,7.1686747 16.0689286,7.1686747 C12.1345283,7.1686747 10.3012048,8.83612647 10.3012048,12.4177352 L10.3012048,17.5822648 C10.3012048,21.1638735 12.1345283,22.8313253 16.0689286,22.8313253 C17.1550625,22.8313253 18.4976096,22.6628895 19.4873523,22.403035 L19.6385542,22.3623349 L19.3777309,20.5809229 L19.2000686,20.6109783 C18.0125034,20.8126004 16.9887403,20.9115329 16.0689286,20.9115329 C13.3038232,20.9115329 12.4161419,20.1175679 12.4161419,17.6423757 L12.4161419,12.3569982 C12.4161419,9.88305826 13.3038232,9.08846708 16.0689286,9.08846708" id="Fill-5" fill="#FFFFFF"></path>
                        </g>
                    </g>
                </g>
            </g>
        </g>
    </g>
</svg>